# xmcd
#
# Track frame offsets:
# 150
# 22131
# 53083
# 69605
# 99572
# 121897
# 139822
# 163095
# 184239
# 204497
# 227922
# 242435
# 255739
# 271371
# 284588
# 295351
# 306346
#
# Disc length: 4282 seconds
#
#
# Revision: 0
# Processed by: cddbd v1.5.2PL0 Copyright (c) Steve Scherf et al.
# Submitted via: FreeRIP 2.35 
#
DISCID=0a10b811
DTITLE=Moody Blues - Collected 3/3
DYEAR=1900
DGENRE=Blues
TTITLE0=Your Wildest Dreams
TTITLE1=Other Side of Life
TTITLE2=Vintage Wine
TTITLE3=I Know You're out There ...
TTITLE4=Lean on Me (Tonight)
TTITLE5=Say It with Love
TTITLE6=Bless the Wings
TTITLE7=This Is the Moment
TTITLE8=Strange Times
TTITLE9=December Snow
TTITLE10=Go Now
TTITLE11=Boulevard de La Madelaine
TTITLE12=From the Bottom of My Heart
TTITLE13=Fly Me High
TTITLE14=Cities
TTITLE15=Love and Beauty
TTITLE16=Simple Game
EXTD=
EXTT0=
EXTT1=
EXTT2=
EXTT3=
EXTT4=
EXTT5=
EXTT6=
EXTT7=
EXTT8=
EXTT9=
EXTT10=
EXTT11=
EXTT12=
EXTT13=
EXTT14=
EXTT15=
EXTT16=
PLAYORDER=
